<?xml version="1.0" encoding="UTF-8" standalone="no"?>
<!DOCTYPE svg PUBLIC "-//W3C//DTD SVG 1.1//EN" "http://www.w3.org/Graphics/SVG/1.1/DTD/svg11.dtd">
<svg width="100%" height="100%" viewBox="0 0 800 547" version="1.1" xmlns="http://www.w3.org/2000/svg" xmlns:xlink="http://www.w3.org/1999/xlink" xml:space="preserve" xmlns:serif="http://www.serif.com/" style="fill-rule:evenodd;clip-rule:evenodd;stroke-linejoin:round;stroke-miterlimit:2;">
    <g transform="matrix(0.117751,0,0,0.117751,400,273.5)">
        <g id="AMC-ALPHA.svg" serif:id="AMC ALPHA.svg" transform="matrix(1,0,0,1,-3388.5,-2312.5)">
            <g id="Colour---Black" serif:id="Colour / Black" transform="matrix(2.46122,0,0,2.46122,-1337.44,-1358.11)">
                <g>
                    <g id="Cree-Passthrough" serif:id="Cree Passthrough" transform="matrix(1.80071,0,0,1.80071,1.90704,-505.81)">
                        <g transform="matrix(0.364037,0,0,0.379486,182.528,887.501)">
                            <g transform="matrix(1,0,0,1,3177.55,0)">
                                <g id="Maple-Leaf-Curve" serif:id="Maple Leaf Curve" transform="matrix(0.605736,0,0,0.581866,963.953,550.698)">
                                    <path d="M388.454,749.499L363.774,749.499C363.774,749.499 369.691,640.032 370.892,617.825C370.943,616.88 370.559,615.965 369.85,615.338C369.14,614.711 368.183,614.443 367.251,614.609C345.206,618.535 236.022,637.98 236.022,637.98C236.022,637.98 251.063,596.726 253.875,589.013C254.144,588.275 253.914,587.447 253.302,586.953C240.881,576.926 119.495,478.944 119.495,478.944C119.495,478.944 147.803,465.608 154.455,462.475C155.248,462.101 155.639,461.197 155.367,460.365C151.668,449.042 127.652,375.512 127.652,375.512C127.652,375.512 197.185,390.252 207.952,392.535C208.763,392.706 209.582,392.284 209.911,391.524C212.928,384.548 227.011,351.991 227.011,351.991C227.011,351.991 284.757,413.914 301.679,432.06C302.27,432.693 303.209,432.859 303.982,432.468C304.755,432.076 305.175,431.22 305.011,430.37C298.869,398.432 272.624,261.968 272.624,261.968C272.624,261.968 315.7,286.442 324.567,291.48C324.98,291.714 325.471,291.77 325.927,291.634C326.382,291.497 326.762,291.18 326.977,290.757C333.468,278.013 376.004,194.493 376.004,194.493C376.004,194.493 419.122,278.059 425.68,290.768C425.897,291.188 426.277,291.502 426.731,291.636C427.186,291.769 427.675,291.711 428.086,291.476C436.872,286.429 479.458,261.968 479.458,261.968C479.458,261.968 452.876,398.001 446.58,430.218C446.41,431.087 446.837,431.964 447.627,432.367C448.417,432.771 449.378,432.603 449.985,431.957C467.126,413.681 524.986,351.991 524.986,351.991C524.986,351.991 539.079,384.551 542.098,391.525C542.426,392.284 543.245,392.707 544.055,392.535C554.827,390.254 624.454,375.512 624.454,375.512C624.454,375.512 600.665,449.029 596.998,460.362C596.727,461.197 597.118,462.103 597.912,462.481C604.52,465.626 632.504,478.944 632.504,478.944C632.504,478.944 511.596,576.816 499.094,586.936C498.471,587.441 498.234,588.284 498.504,589.039C501.286,596.818 516.005,637.98 516.005,637.98C516.005,637.98 406.912,618.516 384.982,614.603C384.059,614.439 383.111,614.704 382.409,615.324C381.706,615.944 381.326,616.851 381.376,617.785C382.565,639.902 388.454,749.499 388.454,749.499Z" style="fill:#fff;"/>
                                </g>
                                <g transform="matrix(5.26936e-14,-860.552,860.552,5.26936e-14,927.043,1142.02)">
                                    <rect x="0.151" y="-0.125" width="0.434" height="0.125" style="fill:#fff;"/>
                                </g>
                                <g transform="matrix(5.26936e-14,-860.552,860.552,5.26936e-14,927.043,1142.02)">
                                    <path d="M0.661,-0.125L0.368,-0.7L0.075,-0.125L0.011,-0L0.151,-0L0.215,-0.125L0.368,-0.425L0.521,-0.125L0.585,-0L0.725,-0L0.661,-0.125Z" style="fill:#fff;fill-rule:nonzero;"/>
                                </g>
                            </g>
                            <g transform="matrix(0.999233,0,0,1.03351,-1980.21,-1072.59)">
                                <path d="M4688.52,1539.14L4688.52,1822.26C4688.52,2005.12 4838.37,2153.57 5022.94,2153.57C5207.51,2153.57 5357.36,2005.12 5357.36,1822.26L5357.36,1539.14L5249.71,1539.14L5249.71,1822.26C5249.71,1944.17 5145.99,2049.49 5022.94,2049.49C4899.89,2049.49 4796.14,1944.17 4796.14,1822.26C4796.14,1700.36 4799.99,1539.14 4799.99,1539.14" style="fill:#fff;"/>
                            </g>
                            <g>
                                <g transform="matrix(5.3799e-14,-878.605,860.552,5.26936e-14,2546.12,1032.1)">
                                    <rect x="0.151" y="-0.125" width="0.434" height="0.125" style="fill:#fff;"/>
                                </g>
                                <g transform="matrix(5.3799e-14,-878.605,860.552,5.26936e-14,2299.37,1032.1)">
                                    <rect x="0.151" y="-0.125" width="0.434" height="0.125" style="fill:#fff;"/>
                                </g>
                            </g>
                            <g transform="matrix(1,0,0,1,925.848,0)">
                                <g transform="matrix(1.08676,0,0,1.07077,-78.846,-136.071)">
                                    <ellipse cx="876.119" cy="434.028" rx="68.182" ry="66.382" style="fill:#fff;"/>
                                </g>
                                <g transform="matrix(1.08676,0,0,1.07077,158.305,360.591)">
                                    <ellipse cx="876.119" cy="434.028" rx="68.182" ry="66.382" style="fill:#fff;"/>
                                </g>
                                <g transform="matrix(5.26936e-14,-860.552,860.552,5.26936e-14,927.043,1142.02)">
                                    <rect x="0.151" y="-0.125" width="0.434" height="0.125" style="fill:#fff;"/>
                                </g>
                                <g transform="matrix(5.26936e-14,-860.552,860.552,5.26936e-14,927.043,1142.02)">
                                    <path d="M0.661,-0.125L0.368,-0.7L0.075,-0.125L0.011,-0L0.151,-0L0.215,-0.125L0.368,-0.425L0.521,-0.125L0.585,-0L0.725,-0L0.661,-0.125Z" style="fill:#fff;fill-rule:nonzero;"/>
                                </g>
                            </g>
                            <g>
                                <g transform="matrix(1.08676,0,0,1.07077,-78.846,-136.071)">
                                    <ellipse cx="876.119" cy="434.028" rx="68.182" ry="66.382" style="fill:#fff;"/>
                                </g>
                                <g transform="matrix(1.08675,0,0,1.07077,158.308,360.591)">
                                    <ellipse cx="876.119" cy="434.028" rx="68.182" ry="66.382" style="fill:#fff;"/>
                                </g>
                                <g transform="matrix(5.26936e-14,-860.552,860.552,5.26936e-14,927.043,1142.02)">
                                    <rect x="0.151" y="-0.125" width="0.434" height="0.125" style="fill:#fff;"/>
                                </g>
                                <g transform="matrix(5.26936e-14,-860.552,860.552,5.26936e-14,927.043,1142.02)">
                                    <path d="M0.661,-0.125L0.368,-0.7L0.075,-0.125L0.011,-0L0.151,-0L0.215,-0.125L0.368,-0.425L0.521,-0.125L0.585,-0L0.725,-0L0.661,-0.125Z" style="fill:#fff;fill-rule:nonzero;"/>
                                </g>
                            </g>
                        </g>
                        <g transform="matrix(1.24965,0,0,1.24965,-995.086,-513.405)">
                            <g transform="matrix(268.679,0,0,268.679,1211.4,1715.87)">
                                <path d="M0.15,-0L0.15,-0.64L0.451,-0.129L0.493,-0.129L0.794,-0.64L0.794,-0L0.851,-0L0.851,-0.73L0.786,-0.73L0.472,-0.198L0.158,-0.73L0.094,-0.73L0.094,-0L0.15,-0Z" style="fill:#fff;fill-rule:nonzero;"/>
                            </g>
                            <g transform="matrix(268.679,0,0,268.679,1465.04,1715.87)">
                                <path d="M0.545,-0L0.545,-0.055L0.15,-0.055L0.15,-0.348L0.515,-0.348L0.515,-0.402L0.15,-0.402L0.15,-0.676L0.535,-0.676L0.535,-0.73L0.094,-0.73L0.094,-0L0.545,-0Z" style="fill:#fff;fill-rule:nonzero;"/>
                            </g>
                            <g transform="matrix(268.679,0,0,268.679,1621.67,1715.87)">
                                <path d="M0.307,-0C0.542,-0 0.69,-0.163 0.69,-0.366C0.69,-0.567 0.533,-0.73 0.307,-0.73L0.094,-0.73L0.094,-0L0.307,-0ZM0.15,-0.674L0.307,-0.674C0.503,-0.674 0.632,-0.531 0.632,-0.368C0.632,-0.197 0.512,-0.056 0.307,-0.056L0.15,-0.056L0.15,-0.674Z" style="fill:#fff;fill-rule:nonzero;"/>
                            </g>
                            <g transform="matrix(268.679,0,0,268.679,1819.42,1715.87)">
                                <rect x="0.094" y="-0.73" width="0.056" height="0.73" style="fill:#fff;"/>
                            </g>
                            <g transform="matrix(268.679,0,0,268.679,1884.98,1715.87)">
                                <path d="M0.087,-0L0.177,-0.231L0.502,-0.231L0.593,-0L0.654,-0L0.371,-0.73L0.308,-0.73L0.025,-0L0.087,-0ZM0.339,-0.655L0.484,-0.286L0.196,-0.286L0.339,-0.655Z" style="fill:#fff;fill-rule:nonzero;"/>
                            </g>
                        </g>
                    </g>
                    <g transform="matrix(1,0,0,1,242.692,283.093)">
                        <g id="Curve">
                            <path d="M300.714,929.165L300.714,287.573C300.714,287.573 810.481,174.946 1477.98,500.146C2306.37,903.728 3053.9,1017.8 3053.9,1017.8C3053.9,1017.8 2560.85,1001.32 2315.64,976.384C2052.98,949.677 1585.55,881.668 1413.39,864.834C632.982,788.523 300.714,929.165 300.714,929.165Z" style="fill:url(#_Linear1);"/>
                        </g>
                    </g>
                </g>
            </g>
        </g>
        <g id="AMC-ALPHA.svg1" serif:id="AMC ALPHA.svg">
        </g>
    </g>
    <defs>
        <linearGradient id="_Linear1" x1="0" y1="0" x2="1" y2="0" gradientUnits="userSpaceOnUse" gradientTransform="matrix(2753.19,58.9306,-58.9306,2753.19,300.714,621.657)"><stop offset="0" style="stop-color:#65e83e;stop-opacity:1"/><stop offset="1" style="stop-color:#26cf95;stop-opacity:1"/></linearGradient>
    </defs>
</svg>
